<svg width="273" height="64" viewBox="0 0 273 64" fill="none" xmlns="http://www.w3.org/2000/svg">
<rect width="273" height="64" rx="32" fill="#0A36F7"/>
<path d="M32.8516 38.5371C35.0245 36.8316 35.215 36.7043 35.4424 36.8936C35.5433 36.9819 35.6315 37.0958 35.6318 37.1465C35.6318 37.2097 35.0506 37.7282 34.3428 38.3223C32.7505 39.6239 31.3102 41.0268 30.9561 41.5957C29.9323 43.2767 32.2199 42.9865 37.0986 40.8125C38.9289 39.998 42.057 38.427 44.9541 36.8887C47.9197 39.2802 51.0278 41.5439 54.5059 43.3965C54.515 43.4014 54.5249 43.4055 54.5342 43.4102C54.6521 43.4701 54.7717 43.5306 54.8926 43.5918C52.9228 44.8636 51.0622 45.4641 48.752 45.5771C45.5289 45.7415 42.6086 44.7684 40.2324 42.7588L39.4365 42.0762L37.7559 42.8223C35.5693 43.7828 33.0157 44.7434 31.2715 45.2363C29.7042 45.6913 27.5428 45.8933 27.0625 45.6279C26.696 45.4257 26.696 44.8059 27.0752 44.1992C27.821 42.9732 30.2732 40.5593 32.8516 38.5371ZM55.4756 31.8379C56.6889 31.5219 58.3449 31.5474 59.0527 31.8887C60.6958 32.6976 60.6703 35.5795 58.9893 38.9795C58.8657 39.2282 58.7349 39.4702 58.5977 39.7061C58.1408 39.4397 57.6687 39.1461 57.1797 38.835C54.8879 37.3357 52.6916 35.6537 50.4775 33.8809C52.5838 32.778 53.88 32.2653 55.4756 31.8379ZM36.8457 28.8252C38.4529 30.973 40.2927 32.8372 42.2021 34.5479C37.3045 36.2741 35.1483 34.8606 36.3271 30.3848C36.4684 29.8469 36.6425 29.3266 36.8457 28.8252ZM65.5244 21.4736C66.9905 21.0819 68.7854 20.9689 69.2656 21.2217C69.6316 21.4242 69.568 22.0808 69.1133 22.8135C68.7467 23.3822 66.1311 26.1005 65.082 26.9727C64.2858 27.6552 62.2502 29.247 61.6436 29.6768C61.1381 30.0306 61.0119 30.0813 60.8477 29.9424C60.7465 29.8539 60.6582 29.74 60.6582 29.6895C60.6593 29.6255 61.2402 29.0955 61.96 28.5146C63.3502 27.3645 65.1572 25.5946 65.4102 25.1143C65.8146 24.3939 65.4356 24.0524 64.3994 24.1787C62.0716 24.4916 55.5177 27.5187 47.9287 31.8115C45.0911 29.4533 42.4223 27.1542 40.3027 24.5459C40.2258 24.4479 40.1523 24.348 40.0781 24.25C42.2507 22.3357 45.0992 21.2217 48.2207 21.2217C51.1656 21.2217 54.2621 22.3971 56.3223 24.293L56.8535 24.7852L58.0293 24.2422C61.0373 22.8899 63.3126 22.0424 65.5244 21.4736Z" fill="white"/>
<path d="M35.3524 19.6345C36.0403 18.3006 37.5331 17.9762 38.6272 18.0576C39.7773 18.136 40.8303 18.54 41.7327 19.141C42.5302 19.6771 43.2082 20.3993 43.5874 21.2479C43.0487 20.4917 42.2904 19.9523 41.4806 19.5949C39.7547 18.7856 37.1252 18.8872 36.7046 20.2534C36.3036 21.6237 37.5231 23.5015 38.7035 25.0035C41.1872 28.0636 44.3061 30.7172 47.4666 33.3399C47.5458 33.405 47.6255 33.4703 47.7056 33.5359C50.8779 36.1211 54.0219 38.646 57.3646 40.8326C59.0311 41.8935 60.7931 42.9667 62.543 43.3649C62.9727 43.4525 63.3886 43.4638 63.6448 43.3629C63.8804 43.2778 64.0247 43.0754 64.0251 42.6559C64.0068 41.8348 63.4991 40.8931 62.8974 40.13C62.3418 39.4298 61.654 38.8104 60.8648 38.3261C61.7341 38.6467 62.556 39.1395 63.2731 39.7716C64.0502 40.4815 64.7978 41.3237 65.051 42.5472C65.1878 43.1348 64.9655 44.0764 64.2537 44.4697C63.5827 44.8578 62.9554 44.8571 62.3669 44.8318C60.0595 44.6124 58.1504 43.6578 56.2734 42.703C52.5574 40.7231 49.2183 38.28 45.9778 35.652C45.8954 35.5848 45.8136 35.5178 45.7323 35.4509C42.4834 32.7494 39.3677 29.88 36.9361 26.2776C35.8588 24.448 34.3119 22.3834 35.3524 19.6345Z" fill="white"/>
<path d="M86.7695 40.7812C84.6055 40.7812 82.9102 40.2539 81.6836 39.1992C80.4648 38.1367 79.8555 36.6719 79.8555 34.8047H82.8906C82.9062 35.8594 83.2539 36.6836 83.9336 37.2773C84.6211 37.8711 85.5742 38.168 86.793 38.168C87.8789 38.168 88.7539 37.9414 89.418 37.4883C90.082 37.0273 90.4141 36.4141 90.4141 35.6484C90.4141 35.0312 90.1641 34.5312 89.6641 34.1484C89.1641 33.7578 88.332 33.4297 87.168 33.1641L85.293 32.7422C83.5508 32.3438 82.2656 31.7539 81.4375 30.9727C80.6094 30.1914 80.1953 29.1875 80.1953 27.9609C80.1953 26.9219 80.4609 26.0117 80.9922 25.2305C81.5312 24.4492 82.2812 23.8438 83.2422 23.4141C84.2109 22.9766 85.3359 22.7578 86.6172 22.7578C88.5703 22.7578 90.1172 23.2539 91.2578 24.2461C92.4062 25.2383 93.0039 26.6016 93.0508 28.3359H90.1094C90.0469 27.4141 89.7031 26.6914 89.0781 26.168C88.4531 25.6445 87.6289 25.3828 86.6055 25.3828C85.6367 25.3828 84.8438 25.6094 84.2266 26.0625C83.6094 26.5156 83.3008 27.0977 83.3008 27.8086C83.3008 28.3945 83.543 28.8711 84.0273 29.2383C84.5195 29.5977 85.3359 29.9062 86.4766 30.1641L88.2461 30.5742C90.0586 30.9727 91.3867 31.5664 92.2305 32.3555C93.0742 33.1445 93.4961 34.1797 93.4961 35.4609C93.4961 36.5469 93.2227 37.4883 92.6758 38.2852C92.1289 39.082 91.3516 39.6992 90.3438 40.1367C89.3359 40.5664 88.1445 40.7812 86.7695 40.7812ZM94.7041 45.3984V28.125H97.6103V29.8477H97.6455C98.0361 29.1914 98.5595 28.6992 99.2158 28.3711C99.872 28.043 100.599 27.8789 101.395 27.8789C102.458 27.8789 103.388 28.1523 104.185 28.6992C104.989 29.2383 105.614 29.9922 106.06 30.9609C106.513 31.9219 106.739 33.0352 106.739 34.3008C106.739 35.5898 106.517 36.7188 106.071 37.6875C105.634 38.6484 105.013 39.3984 104.208 39.9375C103.403 40.4766 102.462 40.7461 101.384 40.7461C100.571 40.7461 99.8486 40.5703 99.2158 40.2188C98.5908 39.8672 98.083 39.3398 97.6923 38.6367H97.6572V45.3984H94.7041ZM100.692 38.2734C101.606 38.2734 102.345 37.9336 102.907 37.2539C103.47 36.5664 103.751 35.582 103.751 34.3008C103.751 33.0273 103.47 32.0469 102.907 31.3594C102.345 30.6719 101.606 30.3281 100.692 30.3281C99.7236 30.3281 98.9462 30.6914 98.3603 31.418C97.7822 32.1367 97.4931 33.0977 97.4931 34.3008C97.4931 35.5039 97.7822 36.4688 98.3603 37.1953C98.9462 37.9141 99.7236 38.2734 100.692 38.2734ZM111.767 40.6992C110.533 40.6992 109.51 40.3906 108.697 39.7734C107.892 39.1484 107.49 38.2188 107.49 36.9844C107.49 36.0469 107.717 35.3242 108.17 34.8164C108.631 34.3008 109.228 33.9258 109.963 33.6914C110.705 33.457 111.502 33.2969 112.353 33.2109C113.502 33.0781 114.303 32.9609 114.756 32.8594C115.209 32.7578 115.435 32.4961 115.435 32.0742V31.9805C115.435 31.4492 115.232 31.0156 114.826 30.6797C114.428 30.3438 113.877 30.1758 113.174 30.1758C112.455 30.1758 111.869 30.3438 111.416 30.6797C110.971 31.0156 110.728 31.4453 110.689 31.9688H107.842C107.912 30.7422 108.424 29.7539 109.377 29.0039C110.33 28.2539 111.615 27.8789 113.232 27.8789C114.842 27.8789 116.1 28.2539 117.006 29.0039C117.912 29.7539 118.365 30.7734 118.365 32.0625V40.5H115.459V38.7539H115.412C115.115 39.3008 114.685 39.7617 114.123 40.1367C113.56 40.5117 112.775 40.6992 111.767 40.6992ZM112.494 38.5078C113.463 38.5078 114.197 38.2578 114.697 37.7578C115.197 37.25 115.447 36.6367 115.447 35.918V34.582C115.267 34.6992 114.92 34.8086 114.404 34.9102C113.889 35.0039 113.326 35.0977 112.717 35.1914C112.084 35.2852 111.533 35.4648 111.064 35.7305C110.603 35.9883 110.373 36.3984 110.373 36.9609C110.373 37.4453 110.564 37.8242 110.947 38.0977C111.33 38.3711 111.846 38.5078 112.494 38.5078ZM125.491 40.7812C124.288 40.7812 123.229 40.5078 122.315 39.9609C121.409 39.4141 120.702 38.6562 120.194 37.6875C119.694 36.7188 119.444 35.5977 119.444 34.3242C119.444 33.0508 119.694 31.9297 120.194 30.9609C120.702 29.9844 121.409 29.2227 122.315 28.6758C123.229 28.1211 124.288 27.8438 125.491 27.8438C126.53 27.8438 127.456 28.0469 128.268 28.4531C129.081 28.8516 129.733 29.4062 130.225 30.1172C130.725 30.8203 131.018 31.6328 131.104 32.5547H128.21C128.1 31.8906 127.815 31.3516 127.354 30.9375C126.901 30.5156 126.292 30.3047 125.526 30.3047C124.557 30.3047 123.8 30.668 123.253 31.3945C122.706 32.1211 122.432 33.0977 122.432 34.3242C122.432 35.543 122.706 36.5156 123.253 37.2422C123.8 37.9609 124.557 38.3203 125.526 38.3203C126.3 38.3203 126.901 38.1172 127.331 37.7109C127.761 37.2969 128.046 36.7461 128.186 36.0586H131.104C131.034 36.9648 130.749 37.7734 130.249 38.4844C129.757 39.1953 129.1 39.7578 128.28 40.1719C127.468 40.5781 126.538 40.7812 125.491 40.7812ZM137.597 40.7812C136.363 40.7812 135.293 40.5039 134.387 39.9492C133.48 39.3945 132.781 38.6328 132.289 37.6641C131.805 36.6875 131.562 35.5742 131.562 34.3242C131.562 33.0664 131.812 31.9531 132.312 30.9844C132.82 30.0078 133.519 29.2422 134.41 28.6875C135.301 28.125 136.324 27.8438 137.48 27.8438C138.668 27.8438 139.707 28.1172 140.597 28.6641C141.488 29.2109 142.18 29.9688 142.672 30.9375C143.164 31.8984 143.41 33.0117 143.41 34.2773V35.0859H134.457C134.496 36.0938 134.793 36.9062 135.347 37.5234C135.902 38.1406 136.676 38.4492 137.668 38.4492C138.41 38.4492 139.023 38.2891 139.508 37.9688C139.992 37.6406 140.32 37.2109 140.492 36.6797H143.258C143.101 37.4844 142.758 38.1953 142.226 38.8125C141.703 39.4297 141.043 39.9141 140.246 40.2656C139.449 40.6094 138.566 40.7812 137.597 40.7812ZM134.48 33.0469H140.574C140.48 32.1641 140.16 31.4688 139.613 30.9609C139.074 30.4453 138.379 30.1875 137.527 30.1875C136.668 30.1875 135.969 30.4453 135.43 30.9609C134.898 31.4688 134.582 32.1641 134.48 33.0469ZM149.084 40.5V23.0391H161.213V25.7227H152.177V30.3164H160.533V32.9531H152.177V37.8164H161.213V40.5H149.084ZM161.249 40.5L165.737 34.1953L161.542 28.125H164.835L166.124 30.0938C166.35 30.4531 166.569 30.8086 166.78 31.1602C166.991 31.5039 167.202 31.8477 167.413 32.1914C167.624 31.8477 167.835 31.5039 168.046 31.1602C168.264 30.8086 168.487 30.4531 168.714 30.0938L170.026 28.125H173.272L169.042 34.1367L173.471 40.5H170.167L168.69 38.2969C168.464 37.9297 168.241 37.5742 168.022 37.2305C167.803 36.8867 167.589 36.543 167.378 36.1992C167.159 36.543 166.94 36.8867 166.721 37.2305C166.503 37.5742 166.276 37.9297 166.042 38.2969L164.542 40.5H161.249ZM179.004 40.7812C177.8 40.7812 176.742 40.5078 175.828 39.9609C174.922 39.4141 174.215 38.6562 173.707 37.6875C173.207 36.7188 172.957 35.5977 172.957 34.3242C172.957 33.0508 173.207 31.9297 173.707 30.9609C174.215 29.9844 174.922 29.2227 175.828 28.6758C176.742 28.1211 177.8 27.8438 179.004 27.8438C180.043 27.8438 180.968 28.0469 181.781 28.4531C182.593 28.8516 183.246 29.4062 183.738 30.1172C184.238 30.8203 184.531 31.6328 184.617 32.5547H181.722C181.613 31.8906 181.328 31.3516 180.867 30.9375C180.414 30.5156 179.804 30.3047 179.039 30.3047C178.07 30.3047 177.312 30.668 176.765 31.3945C176.218 32.1211 175.945 33.0977 175.945 34.3242C175.945 35.543 176.218 36.5156 176.765 37.2422C177.312 37.9609 178.07 38.3203 179.039 38.3203C179.812 38.3203 180.414 38.1172 180.843 37.7109C181.273 37.2969 181.558 36.7461 181.699 36.0586H184.617C184.547 36.9648 184.261 37.7734 183.761 38.4844C183.269 39.1953 182.613 39.7578 181.793 40.1719C180.98 40.5781 180.05 40.7812 179.004 40.7812ZM188.602 33.5039V40.5H185.649V23.0391H188.602V29.9414C189.462 28.5664 190.712 27.8789 192.352 27.8789C193.649 27.8789 194.708 28.2969 195.528 29.1328C196.356 29.9688 196.77 31.1797 196.77 32.7656V40.5H193.805V33.2344C193.805 32.3281 193.587 31.6406 193.149 31.1719C192.712 30.7031 192.098 30.4688 191.309 30.4688C190.536 30.4688 189.891 30.7109 189.376 31.1953C188.86 31.6797 188.602 32.4492 188.602 33.5039ZM202.22 40.6992C200.986 40.6992 199.963 40.3906 199.15 39.7734C198.345 39.1484 197.943 38.2188 197.943 36.9844C197.943 36.0469 198.17 35.3242 198.623 34.8164C199.084 34.3008 199.681 33.9258 200.416 33.6914C201.158 33.457 201.955 33.2969 202.806 33.2109C203.955 33.0781 204.755 32.9609 205.209 32.8594C205.662 32.7578 205.888 32.4961 205.888 32.0742V31.9805C205.888 31.4492 205.685 31.0156 205.279 30.6797C204.88 30.3438 204.33 30.1758 203.627 30.1758C202.908 30.1758 202.322 30.3438 201.869 30.6797C201.423 31.0156 201.181 31.4453 201.142 31.9688H198.295C198.365 30.7422 198.877 29.7539 199.83 29.0039C200.783 28.2539 202.068 27.8789 203.685 27.8789C205.295 27.8789 206.552 28.2539 207.459 29.0039C208.365 29.7539 208.818 30.7734 208.818 32.0625V40.5H205.912V38.7539H205.865C205.568 39.3008 205.138 39.7617 204.576 40.1367C204.013 40.5117 203.228 40.6992 202.22 40.6992ZM202.947 38.5078C203.916 38.5078 204.65 38.2578 205.15 37.7578C205.65 37.25 205.9 36.6367 205.9 35.918V34.582C205.72 34.6992 205.373 34.8086 204.857 34.9102C204.341 35.0039 203.779 35.0977 203.17 35.1914C202.537 35.2852 201.986 35.4648 201.517 35.7305C201.056 35.9883 200.826 36.3984 200.826 36.9609C200.826 37.4453 201.017 37.8242 201.4 38.0977C201.783 38.3711 202.298 38.5078 202.947 38.5078ZM213.424 33.5039V40.5H210.471V28.125H213.378V30.0234C214.237 28.5938 215.503 27.8789 217.174 27.8789C218.471 27.8789 219.53 28.2969 220.35 29.1328C221.178 29.9688 221.592 31.1797 221.592 32.7656V40.5H218.628V33.2344C218.628 32.3281 218.409 31.6406 217.971 31.1719C217.534 30.7031 216.92 30.4688 216.131 30.4688C215.358 30.4688 214.713 30.7109 214.198 31.1953C213.682 31.6797 213.424 32.4492 213.424 33.5039ZM228.882 45.5625C227.25 45.5625 225.953 45.2109 224.992 44.5078C224.031 43.8047 223.468 42.8516 223.304 41.6484H226.199C226.339 42.1797 226.648 42.582 227.125 42.8555C227.601 43.1367 228.187 43.2773 228.882 43.2773C229.804 43.2773 230.519 43.0273 231.027 42.5273C231.542 42.0273 231.8 41.3047 231.8 40.3594V38.4727H231.789C231.39 39.1992 230.871 39.7344 230.23 40.0781C229.589 40.4141 228.863 40.582 228.05 40.582C226.972 40.582 226.031 40.3125 225.226 39.7734C224.421 39.2344 223.796 38.4922 223.351 37.5469C222.914 36.5938 222.695 35.4961 222.695 34.2539C222.695 33.0039 222.917 31.8984 223.363 30.9375C223.808 29.9766 224.433 29.2266 225.238 28.6875C226.042 28.1484 226.972 27.8789 228.027 27.8789C228.832 27.8789 229.558 28.0508 230.207 28.3945C230.863 28.7305 231.394 29.2539 231.8 29.9648H231.812V28.125H234.73V40.1836C234.73 41.457 234.476 42.4883 233.968 43.2773C233.46 44.0742 232.765 44.6523 231.882 45.0117C231 45.3789 230 45.5625 228.882 45.5625ZM228.742 38.1445C229.71 38.1445 230.484 37.7891 231.062 37.0781C231.648 36.3594 231.941 35.4062 231.941 34.2188C231.941 33.0312 231.648 32.082 231.062 31.3711C230.484 30.6523 229.71 30.293 228.742 30.293C227.828 30.293 227.089 30.6328 226.527 31.3125C225.964 31.9922 225.683 32.9609 225.683 34.2188C225.683 35.4844 225.964 36.457 226.527 37.1367C227.089 37.8086 227.828 38.1445 228.742 38.1445ZM241.856 40.7812C240.622 40.7812 239.551 40.5039 238.645 39.9492C237.739 39.3945 237.04 38.6328 236.547 37.6641C236.063 36.6875 235.821 35.5742 235.821 34.3242C235.821 33.0664 236.071 31.9531 236.571 30.9844C237.079 30.0078 237.778 29.2422 238.668 28.6875C239.559 28.125 240.583 27.8438 241.739 27.8438C242.926 27.8438 243.965 28.1172 244.856 28.6641C245.747 29.2109 246.438 29.9688 246.93 30.9375C247.422 31.8984 247.668 33.0117 247.668 34.2773V35.0859H238.715C238.754 36.0938 239.051 36.9062 239.606 37.5234C240.161 38.1406 240.934 38.4492 241.926 38.4492C242.668 38.4492 243.282 38.2891 243.766 37.9688C244.25 37.6406 244.579 37.2109 244.75 36.6797H247.516C247.36 37.4844 247.016 38.1953 246.485 38.8125C245.961 39.4297 245.301 39.9141 244.504 40.2656C243.708 40.6094 242.825 40.7812 241.856 40.7812ZM238.739 33.0469H244.833C244.739 32.1641 244.418 31.4688 243.872 30.9609C243.333 30.4453 242.637 30.1875 241.786 30.1875C240.926 30.1875 240.227 30.4453 239.688 30.9609C239.157 31.4688 238.84 32.1641 238.739 33.0469Z" fill="white"/>
</svg>
